<svg xmlns="http://www.w3.org/2000/svg" viewBox="0 0 500 500" width="500" height="500">
  <style>
    .st0{fill:#F3F4F6}.st1{fill:#E5E7EB}.st2{fill:#0EA5E9}.st3{fill:#7DD3FC}.st4{fill:#0284C7}.st5{fill:#F43F5E}
    .st6{fill:#FFF}.st7{fill:#9CA3AF}.st8{fill:#4B5563}.st9{fill:#374151}.st10{fill:#1F2937}
  </style>
  <g>
    <path class="st0" d="M389.4 371.3H110.6c-11 0-20-9-20-20V82.7c0-11 9-20 20-20h278.8c11 0 20 9 20 20v268.7c0 11-8.9 19.9-20 19.9z"/>
    <path class="st1" d="M90.6 351.3V82.7c0-11 9-20 20-20h-10c-11 0-20 9-20 20v268.7c0 11 9 20 20 20h10c-11-.1-20-9-20-20.1z"/>
    <path class="st2" d="M389.4 82.7H110.6v-20h278.8v20z"/>
    <circle class="st5" cx="120.6" cy="72.7" r="5"/>
    <circle class="st3" cx="140.6" cy="72.7" r="5"/>
    <circle class="st4" cx="160.6" cy="72.7" r="5"/>
    <path class="st1" d="M339.4 142.7h-179c-5.5 0-10-4.5-10-10s4.5-10 10-10h179c5.5 0 10 4.5 10 10s-4.5 10-10 10z"/>
    <path class="st1" d="M339.4 182.7h-179c-5.5 0-10-4.5-10-10s4.5-10 10-10h179c5.5 0 10 4.5 10 10s-4.5 10-10 10z"/>
    <path class="st1" d="M259.4 222.7h-99c-5.5 0-10-4.5-10-10s4.5-10 10-10h99c5.5 0 10 4.5 10 10s-4.5 10-10 10z"/>
    <path class="st6" d="M319.4 321.3H180.6c-11 0-20-9-20-20v-30c0-11 9-20 20-20h138.8c11 0 20 9 20 20v30c0 11-9 20-20 20z"/>
    <path class="st2" d="M180.6 271.3c-5.5 0-10-4.5-10-10s4.5-10 10-10h20c5.5 0 10 4.5 10 10s-4.5 10-10 10h-20z"/>
    <path class="st5" d="M240.6 271.3c-5.5 0-10-4.5-10-10s4.5-10 10-10h20c5.5 0 10 4.5 10 10s-4.5 10-10 10h-20z"/>
    <path class="st4" d="M300.6 271.3c-5.5 0-10-4.5-10-10s4.5-10 10-10h20c5.5 0 10 4.5 10 10s-4.5 10-10 10h-20z"/>
    <g>
      <circle class="st7" cx="180.6" cy="301.3" r="10"/>
      <circle class="st8" cx="240.6" cy="301.3" r="10"/>
      <circle class="st9" cx="300.6" cy="301.3" r="10"/>
    </g>
    <path class="st10" d="M250 437.3c-5.5 0-10-4.5-10-10v-106h20v106c0 5.5-4.5 10-10 10z"/>
    <path class="st0" d="M300 437.3H200c-5.5 0-10-4.5-10-10s4.5-10 10-10h100c5.5 0 10 4.5 10 10s-4.5 10-10 10z"/>
  </g>
</svg> 